# xmcd
#
# Track frame offsets: 
#        187
#        13627
#        26210
#        37975
#        52112
#        62702
#        74435
#        85997
#        97462
#        110037
#        120722
#        134082
#        146297
#        157302
#        171337
#        182115
#        192625
#        204805
#        217657
#        229457
#        240842
#        251527
#        264242
#        278662
#
# Disc length: 4206 seconds
#
# Revision: 1
# Processed by: cddbd v1.5.2PL0 Copyright (c) Steve Scherf et al.
# Submitted via: ExactAudioCopy v0.95b4
#
DISCID=6c106c18
DTITLE=Wilson Pickett - The Best Of Wilson Pickett - A Man And A Half
DYEAR=1992
DGENRE=Soul
TTITLE0=I Found a Love [The Falcons]
TTITLE1=Let Me Be Your Boy
TTITLE2=If You Need Me
TTITLE3=It's Too Late
TTITLE4=I'm Gonna Cry (Cry Baby)
TTITLE5=Come Home Baby
TTITLE6=In the Midnight Hour
TTITLE7=Don't Fight It [Unedited Single Master]
TTITLE8=I'm Not Tired
TTITLE9=That's a Man's Way
TTITLE10=634-5789 (Soulsville, U.S.A.)
TTITLE11=Ninety-Nine and a Half (Won't Do)
TTITLE12=Land of 1000 Dances
TTITLE13=Mustang Sally
TTITLE14=Three Time Loser
TTITLE15=Everybody Needs Somebody to Love
TTITLE16=Soul Dance Number Three
TTITLE17=You Can't Stand Alone
TTITLE18=Funky Broadway
TTITLE19=I'm in Love
TTITLE20=Stagger Lee
TTITLE21=Jealous Love
TTITLE22=I've Come a Long Way
TTITLE23=In the Midnight Hour [Live and Burnin'] [Live][#]
EXTD=
EXTT0=
EXTT1=
EXTT2=
EXTT3=
EXTT4=
EXTT5=
EXTT6=
EXTT7=
EXTT8=
EXTT9=
EXTT10=
EXTT11=
EXTT12=
EXTT13=
EXTT14=
EXTT15=
EXTT16=
EXTT17=
EXTT18=
EXTT19=
EXTT20=
EXTT21=
EXTT22=
EXTT23=
PLAYORDER=
